<?xml version="1.0" encoding="UTF-8"?><svg id="Layer_2" xmlns="http://www.w3.org/2000/svg" viewBox="0 0 1280 340.39"><defs><style>.cls-1{fill:#fff;fill-rule:evenodd;}</style></defs><path class="cls-1" d="M401.72,0h-61.12V334.82h61.12V0Zm-91.48,96.96C283.02,46.07,228.58,12.58,163.82,12.58,73.25,12.58,0,85.74,0,176.4s73.25,163.82,163.82,163.99c64.75,0,119.2-33.49,146.42-84.39l-56.26-31.26c-18.72,32.58-49.08,53.12-90.16,53.12-55.35,0-98.66-45.95-98.66-101.38s43.31-101.38,98.66-101.38c41.08,0,71.44,20.54,90.16,53.12l56.26-31.26Zm230.43,9.79c58.49,0,109.79,37.53,109.79,109.79,0,5.36,0,11.63-.91,20.95h-166.96c3.55,29.94,29.94,46.44,59.39,46.44,27.72,0,47.76-12.95,57.58-28.13l45.53,33.9c-20.54,29.94-56.67,49.99-103.61,49.99-66.49,0-118.29-45.95-118.29-116.56,0-66.07,49.58-116.56,117.38-116.56l.08,.16Zm-55.84,89.25h104.51c-5.36-26.31-27.72-38.85-50.48-38.85s-48.26,11.63-54.03,38.85Zm228.94-84.38h-67.56l98.66,223.22h55.84l99.15-223.22h-68.3l-58.9,142.87-58.9-142.87Zm293.19-4.88c58.48,0,109.79,37.53,109.79,109.79,0,5.36,0,11.63-.91,20.95h-166.96c3.55,29.94,29.94,46.44,59.39,46.44,27.72,0,47.76-12.95,57.58-28.13l45.54,33.9c-20.54,29.94-56.67,49.99-103.61,49.99-66.49,0-118.29-45.95-118.29-116.56,0-66.07,49.58-116.56,117.38-116.56l.08,.16Zm-55.85,89.25h104.52c-5.36-26.31-27.72-38.85-50.48-38.85s-48.26,11.63-54.03,38.85Zm253-84.39h-61.21v223.22h61.12v-106.74c0-36.63,19.22-59.39,48.26-59.39,9.82,0,18.31,1.81,27.72,4.95v-62.03c-7.59-2.23-14.27-2.64-20.54-2.64-24.99,0-47.76,16.5-55.35,38.36v-35.72Z"/></svg>