<svg width="240" height="56" viewBox="0 0 240 56" fill="none" xmlns="http://www.w3.org/2000/svg">
<g clip-path="url(#clip0_1139_6902)">
<path d="M48.4256 20.9558C48.4256 9.03875 38.4779 0 25.7024 0C11.4121 0 0 12.0686 0 27.0154C0 43.1236 12.826 56 30.0956 56C47.3652 56 62.817 42.3156 64.029 24.3895H56.1515C54.687 37.8214 43.3255 48.1227 30.0956 48.1227C17.3706 48.1227 7.92785 38.7809 7.92785 27.0154C7.92785 16.4112 15.8053 7.87735 25.7024 7.87735C33.9837 7.87735 40.4977 13.5329 40.4977 20.9558C40.4977 27.1163 36.0541 32.2669 30.1461 32.2669V40.1442C40.5987 40.1442 48.4256 31.4085 48.4256 20.9558Z" fill="#2BD7B0"/>
</g>
<g clip-path="url(#clip1_1139_6902)">
<path d="M166.73 39.467L175.744 17.0415H171.412L166.124 30.7389L160.741 17.0415H156.282L163.991 36.1223L163.162 38.1929C162.462 39.8811 161.283 40.7412 159.499 40.7412C158.671 40.7412 157.81 40.6456 157.014 40.3908V44.1496C157.874 44.3726 158.798 44.5 159.69 44.5C162.462 44.4682 165.297 42.971 166.73 39.467V39.467ZM142.935 35.9949H147.012V25.6103C147.012 22.393 149.433 20.3225 152.618 20.3225C153.383 20.3225 154.179 20.4499 154.912 20.6729V16.9778C154.179 16.7867 153.446 16.6593 152.682 16.6593C150.038 16.6593 147.777 18.0609 146.789 20.4181V17.0415H142.903V35.9949H142.935ZM129.906 19.6536C132.55 19.6536 135.066 21.31 135.385 24.3999H124.077C124.746 21.6604 126.944 19.6536 129.906 19.6536ZM130.097 33.128C126.625 33.128 124.3 30.8345 124.045 27.5853H139.08V25.9926C139.08 20.4818 135.385 16.5 129.906 16.5C124.523 16.5 120.159 20.5455 120.159 26.5023C120.159 32.4591 124.363 36.5046 130.034 36.5046C135.257 36.5046 137.997 33.128 138.953 29.8152H134.939C134.047 32.0131 132.518 33.1599 130.097 33.128V33.128ZM119.331 17.0415H115.189L109.838 31.2167L104.55 17.0415H100.282L107.927 35.9949H111.685L119.331 17.0415ZM90.2474 19.6536C92.8913 19.6536 95.4079 21.31 95.7264 24.3999H84.4181C85.087 21.6923 87.3168 19.6536 90.2474 19.6536V19.6536ZM90.4385 33.1598C86.9664 33.1598 84.6411 30.8663 84.3862 27.6172H99.4215V26.0245C99.4215 20.5137 95.7264 16.5319 90.2474 16.5319C84.864 16.5319 80.5 20.5774 80.5 26.5342C80.5 32.4909 84.7048 36.5364 90.3749 36.5364C95.599 36.5364 98.3384 33.1599 99.2941 29.847H95.3123C94.4203 32.0131 92.8914 33.1598 90.4385 33.1598V33.1598Z" fill="#2E3434"/>
<path d="M176.796 36.186C178.291 36.186 179.503 34.9738 179.503 33.4784C179.503 31.983 178.291 30.7708 176.796 30.7708C175.3 30.7708 174.088 31.983 174.088 33.4784C174.088 34.9738 175.3 36.186 176.796 36.186Z" fill="#2BD7B0"/>
<path d="M229.961 20.0995C233.21 20.0995 235.854 22.7116 235.854 26.5342C235.854 30.3567 233.21 32.9687 229.961 32.9687C226.711 32.9687 224.067 30.3567 224.067 26.5342C224.067 22.7116 226.711 20.0995 229.961 20.0995V20.0995ZM235.599 34.9118C235.599 38.6707 233.273 40.7412 229.833 40.7412C228.145 40.7412 225.819 40.359 223.112 38.607V42.8755C224.832 43.8629 227.476 44.4681 229.833 44.4681C234.452 44.4681 239.517 42.079 239.517 34.8799V17.0415H235.599V19.9403C234.675 17.9972 232.35 16.5 229.323 16.5C224.482 16.5 220.118 20.2907 220.118 26.5023C220.118 32.5865 224.386 36.5046 229.292 36.5046C232.222 36.5046 234.42 35.1985 235.599 33.0961V34.9118ZM206.452 35.9949H210.529V25.6103C210.529 22.393 212.95 20.3225 216.136 20.3225C216.9 20.3225 217.697 20.4499 218.429 20.6729V16.9778C217.697 16.7867 216.964 16.6593 216.199 16.6593C213.556 16.6593 211.294 18.0609 210.306 20.4181V17.0415H206.42V35.9949H206.452ZM192.532 32.9368C189.219 32.9368 186.384 30.3885 186.384 26.5023C186.384 22.6161 189.219 20.0677 192.532 20.0677C195.844 20.0677 198.68 22.6161 198.68 26.5023C198.68 30.3885 195.844 32.9368 192.532 32.9368ZM202.661 26.5342C202.661 20.004 197.533 16.5319 192.532 16.5319C187.53 16.5319 182.402 19.9721 182.402 26.5342C182.402 33.1599 187.53 36.5364 192.532 36.5364C197.533 36.5364 202.661 33.128 202.661 26.5342Z" fill="#2BD7B0"/>
</g>
<defs>
<clipPath id="clip0_1139_6902">
<rect width="64.5" height="56" fill="white"/>
</clipPath>
<clipPath id="clip1_1139_6902">
<rect width="160" height="28" fill="white" transform="translate(80 16.5)"/>
</clipPath>
</defs>
</svg>
