<svg width="498" height="137" viewBox="0 0 498 137" fill="none" xmlns="http://www.w3.org/2000/svg">
<g clip-path="url(#clip0_301_2)">
<path d="M55.8531 74.6818C54.4397 71.9485 52.4797 69.7632 49.9998 68.1218C47.5064 66.4698 45.0398 65.2152 42.5864 64.3099C40.1464 63.4165 37.4265 62.6432 34.4131 61.9885C25.8531 59.8285 21.5865 57.2419 21.5865 54.2285C21.5865 52.5365 22.3598 51.1499 23.9065 50.0686C25.4665 48.9886 27.3998 48.4419 29.7598 48.4419C35.0265 48.4419 38.7864 50.8419 41.0398 55.6432L56.5597 47.1752C53.8264 42.3766 50.1198 38.6966 45.4131 36.1086C40.7198 33.5233 35.4931 32.2286 29.7598 32.2286C22.1465 32.2286 15.7465 34.2566 10.5865 38.2952C5.50653 42.2419 2.9732 47.6966 2.9732 54.6432C2.9732 58.1365 3.6532 61.1619 5.0132 63.7499C6.37319 66.3352 8.37319 68.4418 10.9999 70.0965C13.6398 71.7352 16.0798 72.9885 18.3332 73.8285C20.5998 74.6818 23.3198 75.5232 26.5198 76.3765C35.0665 78.5365 39.3464 81.1218 39.3464 84.1365C39.3464 88.1751 36.1065 90.1898 29.6131 90.1898C22.5732 90.1898 17.9598 87.1365 15.7998 81.0298L-0.00012207 89.9085C5.26653 101.096 15.1332 106.696 29.6131 106.696C37.6131 106.696 44.3331 104.763 49.7864 100.908C55.2397 96.9618 57.9597 91.3764 57.9597 84.1365C57.9597 80.5485 57.2664 77.4165 55.8531 74.6818Z" fill="#7AD6A5"/>
<path d="M116.773 83.8418C113.106 87.5085 108.453 89.3351 102.813 89.3351C97.1729 89.3351 92.5196 87.5085 88.8529 83.8418C85.1863 80.0952 83.3463 75.2952 83.3463 69.4699C83.3463 63.6285 85.1863 58.8819 88.8529 55.2152C92.5196 51.4552 97.1729 49.5752 102.813 49.5752C108.453 49.5752 113.106 51.4552 116.773 55.2152C120.533 58.8819 122.413 63.6285 122.413 69.4699C122.413 75.2952 120.533 80.0952 116.773 83.8418ZM130.466 43.0953C123.773 35.8566 115.693 32.2286 106.2 32.2286C96.3196 32.2286 88.7063 35.6553 83.3463 42.5233V34.2033H65.1597V136.75L83.3463 130.055V96.4018C88.7063 103.268 96.3196 106.696 106.2 106.696C115.786 106.696 123.866 103.122 130.466 95.9765C137.226 88.8285 140.613 80.0018 140.613 69.4699C140.613 59.1219 137.226 50.3352 130.466 43.0953Z" fill="#7AD6A5"/>
<path d="M157.253 26.3073C154.293 26.3073 151.728 25.2233 149.558 23.05C147.385 20.8793 146.3 18.314 146.3 15.354C146.3 12.3967 147.385 9.80869 149.558 7.59136C151.728 5.3727 154.293 4.26337 157.253 4.26337C160.304 4.26337 162.913 5.3727 165.086 7.59136C167.257 9.80869 168.344 12.3967 168.344 15.354C168.344 18.314 167.257 20.8793 165.086 23.05C162.913 25.2233 160.304 26.3073 157.253 26.3073Z" fill="#7AD6A5"/>
<path d="M166.418 104.719H148.225V34.202H166.418V104.719Z" fill="#7AD6A5"/>
<path d="M236.079 39.9886C231.199 34.8153 224.853 32.2287 217.039 32.2287C207.359 32.2287 200.359 35.522 196.039 42.1086V34.202H177.839V104.722H196.039V66.6419C196.039 60.9072 197.413 56.5486 200.186 53.5886C202.973 50.6419 206.746 49.1486 211.546 49.1486C215.866 49.1486 219.279 50.4286 221.773 52.9606C224.266 55.4953 225.506 59.0686 225.506 63.6819V104.722H243.706V61.4152C243.706 52.4019 241.173 45.2553 236.079 39.9886Z" fill="#7AD6A5"/>
<path d="M301.946 83.8418C298.279 87.5085 293.626 89.3351 287.986 89.3351C282.346 89.3351 277.692 87.5085 274.026 83.8418C270.359 80.0951 268.519 75.2952 268.519 69.4698C268.519 63.6285 270.359 58.8819 274.026 55.2152C277.692 51.4552 282.346 49.5752 287.986 49.5752C293.626 49.5752 298.279 51.4552 301.946 55.2152C305.706 58.8819 307.586 63.6285 307.586 69.4698C307.586 75.2952 305.706 80.0951 301.946 83.8418ZM307.586 34.2033V42.5232C302.132 35.6553 294.479 32.2286 284.599 32.2286C275.199 32.2286 267.106 35.8566 260.346 43.0952C253.666 50.3352 250.333 59.1219 250.333 69.4698C250.333 79.8951 253.666 88.7351 260.346 95.9764C267.106 103.122 275.199 106.696 284.599 106.696C294.479 106.696 302.132 103.268 307.586 96.4018V104.722H325.772V34.2033H307.586Z" fill="#7AD6A5"/>
<path d="M386.706 79.3351C385.292 82.2418 383.159 84.5231 380.279 86.1751C377.426 87.8151 374.159 88.6418 370.492 88.6418C365.026 88.6418 360.519 86.8565 356.946 83.2818C353.372 79.5231 351.586 74.9085 351.586 69.4698C351.586 63.8285 353.372 59.1899 356.946 55.5619C360.519 51.9485 365.026 50.1366 370.492 50.1366C374.067 50.1366 377.279 50.9885 380.144 52.6819C383.011 54.3752 385.159 56.6819 386.571 59.5885L402.226 50.4286C399.306 44.8686 395.024 40.4552 389.386 37.1619C383.746 33.8819 377.492 32.2286 370.626 32.2286C359.999 32.2286 351.119 35.8033 343.972 42.9486C336.919 50.0952 333.386 58.9352 333.386 69.4698C333.386 80.0018 336.919 88.8285 343.972 95.9751C351.119 103.122 359.999 106.696 370.626 106.696C377.4 106.696 383.626 105.042 389.319 101.762C394.999 98.4698 399.4 94.0018 402.506 88.3631L386.706 79.3351Z" fill="#7AD6A5"/>
<path d="M465.119 39.9886C460.239 34.8153 453.879 32.2286 446.08 32.2286C436.386 32.2286 429.386 35.522 425.067 42.1086V0.668725L406.879 7.37538V104.722H425.067V66.6419C425.067 60.9072 426.452 56.5486 429.226 53.5886C431.999 50.6419 435.786 49.1486 440.585 49.1486C444.905 49.1486 448.307 50.4286 450.799 52.9606C453.293 55.4953 454.545 59.0686 454.545 63.6819V84.8952C455.452 83.6552 456.439 82.4685 457.52 81.3485C461.685 76.9912 466.944 73.8323 472.747 72.2019V61.4152C472.747 52.4019 470.187 45.2553 465.119 39.9886Z" fill="#7AD6A5"/>
<path d="M497.865 77.2019C497.865 92.4005 485.545 104.722 470.344 104.722H454.385C454.385 97.3218 457.305 90.6152 462.052 85.6685C464.985 82.6152 468.625 80.2152 472.745 78.7752C475.599 77.7485 478.691 77.2019 481.917 77.2019H497.865Z" fill="white"/>
</g>
<defs>
<clipPath id="clip0_301_2">
<rect width="498" height="137" fill="white"/>
</clipPath>
</defs>
</svg>
