<svg width="1312" height="361" viewBox="0 0 1312 361" fill="none" xmlns="http://www.w3.org/2000/svg">
<path d="M147.148 196.785C143.425 189.583 138.261 183.824 131.727 179.499C125.159 175.146 118.66 171.84 112.197 169.455C105.768 167.101 98.6024 165.063 90.6637 163.338C68.1121 157.646 56.8713 150.83 56.8713 142.89C56.8713 138.432 58.9086 134.778 62.9834 131.928C67.0933 129.083 72.1867 127.642 78.4042 127.642C92.2795 127.642 102.185 133.966 108.122 146.618L149.01 124.304C141.809 111.66 132.043 101.963 119.643 95.1433C107.279 88.3306 93.509 84.9193 78.4042 84.9193C58.3466 84.9193 41.4856 90.2632 27.8914 100.905C14.5079 111.305 7.83371 125.678 7.83371 143.983C7.83371 153.188 9.6252 161.16 13.2082 167.979C16.7911 174.791 22.0602 180.343 28.9802 184.703C35.9354 189.021 42.3637 192.323 48.3004 194.537C54.2718 196.785 61.4377 199.002 69.8683 201.251C92.3849 206.943 103.661 213.755 103.661 221.699C103.661 232.341 95.1248 237.649 78.0179 237.649C59.4708 237.649 47.3166 229.604 41.626 213.513L0.000366211 236.908C13.8756 266.389 39.8698 281.145 78.0179 281.145C99.0942 281.145 116.798 276.052 131.165 265.894C145.532 255.494 152.698 240.776 152.698 221.699C152.698 212.244 150.872 203.991 147.148 196.785Z" fill="#80D196"/>
<path d="M307.643 220.923C297.985 230.584 285.724 235.398 270.865 235.398C256.007 235.398 243.748 230.584 234.088 220.923C224.428 211.05 219.58 198.402 219.58 183.052C219.58 167.66 224.428 155.152 234.088 145.49C243.748 135.582 256.007 130.629 270.865 130.629C285.724 130.629 297.985 135.582 307.643 145.49C317.549 155.152 322.502 167.66 322.502 183.052C322.502 198.402 317.549 211.05 307.643 220.923ZM343.72 113.554C326.085 94.4795 304.798 84.9196 279.788 84.9196C253.759 84.9196 233.701 93.9488 219.58 112.046V90.1227H171.667V360.336L219.58 342.697V254.019C233.701 272.112 253.759 281.145 279.788 281.145C305.045 281.145 326.332 271.725 343.72 252.898C361.53 234.063 370.45 210.804 370.45 183.052C370.45 155.784 361.53 132.631 343.72 113.554Z" fill="#80D196"/>
<path d="M414.289 69.3186C406.491 69.3186 399.731 66.4622 394.016 60.7355C388.291 55.0156 385.43 48.256 385.43 40.4562C385.43 32.6636 388.291 25.8441 394.016 20.0014C399.731 14.1551 406.491 11.2319 414.289 11.2319C422.324 11.2319 429.2 14.1551 434.925 20.0014C440.645 25.8441 443.506 32.6636 443.506 40.4562C443.506 48.256 440.645 55.0156 434.925 60.7355C429.2 66.4622 422.324 69.3186 414.289 69.3186Z" fill="#80D196"/>
<path d="M438.437 275.938H390.504V90.1217H438.437V275.938Z" fill="#80D196"/>
<path d="M621.962 105.369C609.105 91.7369 592.384 84.9209 571.8 84.9209C546.298 84.9209 527.856 93.5989 516.475 110.955V90.1206H468.526V275.944H516.475V175.601C516.475 160.49 520.092 149.005 527.4 141.205C534.74 133.441 544.683 129.506 557.329 129.506C568.71 129.506 577.701 132.879 584.269 139.55C590.84 146.229 594.107 155.645 594.107 167.801V275.944H642.055V161.829C642.055 138.078 635.379 119.247 621.962 105.369Z" fill="#80D196"/>
<path d="M795.491 220.923C785.83 230.584 773.572 235.398 758.713 235.398C743.854 235.398 731.593 230.584 721.935 220.923C712.274 211.05 707.426 198.402 707.426 183.052C707.426 167.66 712.274 155.152 721.935 145.49C731.593 135.583 743.854 130.629 758.713 130.629C773.572 130.629 785.83 135.583 795.491 145.49C805.397 155.152 810.35 167.66 810.35 183.052C810.35 198.402 805.397 211.05 795.491 220.923ZM810.35 90.123V112.046C795.981 93.9491 775.819 84.9196 749.79 84.9196C725.025 84.9196 703.704 94.4795 685.894 113.554C668.295 132.631 659.512 155.784 659.512 183.052C659.512 210.523 668.295 233.817 685.894 252.898C703.704 271.725 725.025 281.145 749.79 281.145C775.819 281.145 795.981 272.112 810.35 254.019V275.941H858.261V90.123H810.35Z" fill="#80D196"/>
<path d="M1018.79 209.048C1015.07 216.707 1009.45 222.719 1001.86 227.072C994.346 231.393 985.739 233.571 976.081 233.571C961.678 233.571 949.804 228.867 940.39 219.448C930.977 209.543 926.269 197.383 926.269 183.053C926.269 168.187 930.977 155.964 940.39 146.404C949.804 136.883 961.678 132.108 976.081 132.108C985.496 132.108 993.959 134.353 1001.51 138.816C1009.07 143.277 1014.72 149.356 1018.44 157.015L1059.68 132.878C1051.99 118.227 1040.71 106.598 1025.85 97.9198C1011 89.2769 994.522 84.9201 976.431 84.9201C948.434 84.9201 925.039 94.3396 906.213 113.168C887.629 132 878.321 155.293 878.321 183.053C878.321 210.805 887.629 234.063 906.213 252.895C925.039 271.728 948.434 281.145 976.431 281.145C994.28 281.145 1010.68 276.787 1025.68 268.144C1040.64 259.469 1052.24 247.695 1060.42 232.837L1018.79 209.048Z" fill="#80D196"/>
<path d="M1225.38 105.369C1212.52 91.737 1195.76 84.9209 1175.22 84.9209C1149.68 84.9209 1131.23 93.5991 1119.86 110.955V1.7592L1071.94 19.4315V275.944H1119.86V175.601C1119.86 160.49 1123.51 149.005 1130.81 141.205C1138.12 133.441 1148.09 129.506 1160.75 129.506C1172.13 129.506 1181.08 132.879 1187.65 139.55C1194.22 146.23 1197.52 155.645 1197.52 167.802V223.7C1199.91 220.432 1202.51 217.305 1205.36 214.354C1214.94 204.306 1226.92 196.576 1239.92 192.009C1241.74 191.373 1243.61 190.779 1245.47 190.252V161.829C1245.47 138.079 1238.73 119.247 1225.38 105.369Z" fill="#80D196"/>
<path d="M1311.65 203.428C1311.65 243.477 1279.19 275.944 1239.14 275.944H1197.1C1197.1 256.445 1204.79 238.772 1217.3 225.738C1225.03 217.692 1234.61 211.368 1245.47 207.573C1252.99 204.868 1261.13 203.428 1269.63 203.428H1311.65Z" fill="#1F4E69"/>
</svg>
